<?xml version="1.0" encoding="iso-8859-1"?>
<!-- Generator: Adobe Illustrator 19.0.0, SVG Export Plug-In . SVG Version: 6.00 Build 0)  -->
<svg xmlns="http://www.w3.org/2000/svg" xmlns:xlink="http://www.w3.org/1999/xlink" version="1.1" id="Capa_1" x="0px" y="0px" viewBox="0 0 323.138 323.138" style="enable-background:new 0 0 323.138 323.138;" xml:space="preserve" width="512px" height="512px">
<g>
	<g>
		<path d="M282.732,20.818l-0.56-0.64c-7.196-8.229-19.667-9.156-28-2.08l-0.64,0.56c-6.67,5.966-8.566,15.638-4.64,23.68    l-46.64,27.4l-3.64,2.16c-17.754-19.93-37.156-38.328-58-55c-18.68-14.44-33.48-20.44-40.36-14.8    c-21.92,18.96-31.84,47.4-30.28,78.28c2.595,33.55,16.127,65.322,38.52,90.44c6.577,7.615,13.819,14.63,21.64,20.96l-8,18.8    l-28.84,66.04h-16.28c-22.793,0.044-41.272,18.487-41.36,41.28c0,2.894,2.346,5.24,5.24,5.24h232.48c2.894,0,5.24-2.346,5.24-5.24    c-0.066-22.793-18.527-41.254-41.32-41.32h-16.28l-23.48-53.76c28.44,4.6,56-1.32,77.08-19.6c6.52-6.04,2.72-21.48-8.84-42.04    c-13.557-22.98-29.025-44.777-46.24-65.16l2.64-3.28l33.84-42.12c7.384,4.975,17.168,4.469,24-1.24l0.64-0.56    C288.881,41.621,289.807,29.151,282.732,20.818z M107.091,9.978c2.44-2.16,12.68,3.52,27.32,15    c19.787,15.888,38.223,33.387,55.12,52.32l-32,18.68c-13.749-16.852-26.287-34.656-37.52-53.28    C109.451,24.698,104.331,12.378,107.091,9.978z M237.211,287.058c15.003,0.064,27.806,10.863,30.4,25.64h-221    c2.594-14.777,15.397-25.576,30.4-25.64H237.211z M209.572,276.698l-104.92-0.08l27.44-60.6l7.2-16.48    c1.84,1.307,3.693,2.56,5.56,3.76l1.2,0.76l0.96,0.6h0.28h0.32l0.64,0.4h0.32h0.32h0.32h0.32l0.56,1.28h0.32h0.32    c4.347,2.533,8.747,4.8,13.2,6.8h0.4l0.8,0.36h0.4h0.36l0.72,0.56l0.68,0.28h0.4h0.28l1.12,0.48l1.2,0.48    c4.771,1.89,9.645,3.506,14.6,4.84L209.572,276.698z M194.612,211.457l-4.4-1h-0.36c-8.887-2.216-17.51-5.38-25.72-9.44    c-8.587-4.254-16.733-9.346-24.32-15.2h-0.24c-8.391-6.492-16.109-13.808-23.04-21.84c-20.892-23.37-33.539-52.95-36-84.2    c-1.856-21.653,4.402-43.223,17.56-60.52c3.006,10.094,7.351,19.74,12.92,28.68c16.006,26.055,34.248,50.667,54.52,73.56v0.2v0.24    c19.78,23.144,41.528,44.531,65,63.92c8.044,6.8,16.964,12.491,26.52,16.92C238.036,213.319,215.781,216.413,194.612,211.457z     M256.691,166.298c9.08,16.16,13.4,27.08,10.92,29.24c-2.8,2.52-14.24-4.48-30.52-17.48c-16.896-13.815-32.789-28.813-47.56-44.88    l6.32-7.68l16.84-21.16C229.045,123.74,243.762,144.464,256.691,166.298z M213.771,86.217l-4.96,6.4l-0.28,0.36l-25.36,31.68    l-9.08-10.48l-9.08-10.48l35.2-20.68l7.32-4.28l23.28-13.8L213.771,86.217z M276.932,34.418c-0.152,2.468-1.239,4.785-3.04,6.48    l-0.52,0.44c-3.998,3.198-9.784,2.78-13.28-0.96l-0.44-0.52c-3.291-4.099-2.761-10.065,1.2-13.52    c4.084-3.498,10.225-3.052,13.76,1C276.291,29.298,277.125,31.844,276.932,34.418z" fill="#D80027"/>
	</g>
</g>
<g>
</g>
<g>
</g>
<g>
</g>
<g>
</g>
<g>
</g>
<g>
</g>
<g>
</g>
<g>
</g>
<g>
</g>
<g>
</g>
<g>
</g>
<g>
</g>
<g>
</g>
<g>
</g>
<g>
</g>
</svg>
