<?xml version="1.0" standalone="no"?>
<!DOCTYPE svg PUBLIC "-//W3C//DTD SVG 20010904//EN"
 "http://www.w3.org/TR/2001/REC-SVG-20010904/DTD/svg10.dtd">
<svg version="1.0" xmlns="http://www.w3.org/2000/svg"
 width="700.000000pt" height="700.000000pt" viewBox="0 0 700.000000 700.000000"
 preserveAspectRatio="xMidYMid meet">
<metadata>
Created by potrace 1.11, written by Peter Selinger 2001-2013
</metadata>
<g transform="translate(0.000000,700.000000) scale(0.100000,-0.100000)"
fill="#000000" stroke="none">
<path d="M2222 6983 c-37 -16 -186 -150 -242 -219 -138 -170 -246 -351 -318
-539 -33 -84 -80 -237 -88 -283 -3 -15 -7 -35 -10 -44 -5 -18 -8 -31 -18 -98
-3 -19 -8 -46 -11 -59 -18 -92 -26 -444 -12 -566 4 -33 9 -78 12 -100 2 -22 7
-51 10 -65 2 -14 7 -41 10 -60 13 -77 17 -99 40 -195 108 -456 315 -895 594
-1260 138 -181 384 -442 551 -585 41 -35 74 -69 72 -75 -3 -9 -89 -217 -117
-280 -8 -16 -27 -61 -43 -100 -38 -88 -162 -375 -189 -435 -12 -25 -51 -115
-88 -200 -36 -85 -76 -175 -87 -200 -39 -87 -47 -107 -137 -315 -50 -115 -101
-229 -113 -253 l-23 -43 -235 -3 c-129 -2 -246 -6 -260 -10 -14 -3 -38 -9 -53
-11 -92 -17 -244 -88 -332 -154 -209 -158 -335 -387 -360 -656 -7 -76 0 -106
35 -145 l22 -25 2556 -2 c2018 -2 2562 0 2581 10 50 25 66 62 64 140 -11 321
-209 622 -503 764 -151 73 -254 91 -524 93 -115 0 -212 3 -216 5 -7 5 -6 2
-280 630 -105 242 -200 460 -211 484 l-19 43 53 -7 c142 -18 216 -22 377 -19
96 2 191 5 210 8 47 7 108 17 145 22 66 11 230 56 317 88 166 61 324 147 466
254 141 105 163 142 165 262 1 117 -19 208 -80 365 -80 204 -214 442 -442 790
-167 254 -476 679 -587 805 -45 51 -144 175 -144 180 0 5 43 59 484 608 164
205 300 372 301 372 2 0 25 -11 52 -24 63 -32 105 -42 178 -45 125 -4 243 47
332 143 139 151 158 360 48 531 -88 137 -222 207 -388 201 -101 -3 -170 -28
-249 -91 -142 -112 -205 -312 -148 -475 10 -30 16 -58 12 -61 -4 -4 -225 -135
-492 -291 -267 -157 -508 -299 -536 -315 l-51 -31 -33 37 c-317 351 -681 703
-1060 1021 -55 46 -68 57 -135 110 -311 246 -554 373 -734 385 -58 4 -86 1
-119 -12z m270 -241 c206 -105 591 -406 960 -750 185 -172 636 -633 646 -661
1 -4 -104 -70 -235 -146 -131 -76 -286 -167 -345 -201 l-106 -62 -70 86 c-165
207 -492 659 -492 681 0 5 -4 11 -9 13 -25 10 -340 532 -405 673 -11 22 -34
70 -52 107 -36 76 -73 183 -78 230 -11 94 44 103 186 30z m-287 -387 c40 -102
124 -267 187 -370 30 -49 70 -115 88 -145 54 -88 288 -433 390 -575 173 -242
280 -379 506 -648 131 -158 178 -214 241 -292 27 -33 127 -148 148 -171 11
-11 56 -61 100 -110 110 -122 527 -540 654 -655 58 -52 112 -101 120 -109 9
-8 81 -71 161 -140 80 -69 147 -128 150 -131 3 -3 50 -41 105 -84 127 -99 273
-195 395 -258 52 -27 99 -53 103 -57 21 -20 -265 -137 -448 -184 -261 -67
-586 -71 -865 -11 -41 9 -86 19 -100 21 -205 39 -537 173 -773 313 -141 82
-120 69 -295 193 -166 118 -375 309 -527 483 -38 44 -72 82 -75 85 -3 3 -21
25 -40 50 -19 25 -37 47 -40 50 -4 3 -39 50 -78 105 -301 421 -505 954 -557
1452 -13 131 -15 166 -16 268 0 347 97 692 280 990 30 50 66 105 80 123 l25
33 26 -78 c15 -43 39 -109 55 -148z m3648 114 c45 -12 100 -58 123 -102 22
-43 26 -133 8 -177 -68 -161 -296 -174 -376 -21 -90 172 58 352 245 300z
m-869 -891 c-6 -11 -42 -57 -171 -218 -6 -8 -28 -35 -49 -60 -20 -25 -100
-126 -178 -225 -77 -99 -148 -189 -158 -200 -9 -11 -86 -108 -172 -215 -86
-107 -186 -233 -223 -279 -53 -66 -69 -80 -77 -69 -6 8 -92 108 -191 222 -99
114 -180 212 -180 218 0 8 94 66 255 156 25 14 56 33 70 42 14 10 232 139 485
287 253 149 490 288 525 311 76 47 73 46 64 30z m-236 -1010 c389 -485 731
-997 924 -1384 204 -407 182 -512 -75 -367 -173 98 -489 338 -733 558 -6 6
-46 42 -90 80 -185 164 -631 606 -658 652 -4 7 31 58 86 125 51 63 163 202
248 311 85 108 156 196 157 197 1 0 65 -78 141 -172z m-1647 -1948 c40 -27 87
-53 106 -56 18 -3 37 -12 41 -20 8 -15 311 -170 333 -171 8 0 61 -18 119 -41
58 -22 150 -54 206 -71 l100 -31 189 -433 c104 -237 223 -512 266 -609 62
-144 74 -178 61 -179 -59 -3 -2245 0 -2248 4 -2 2 13 42 35 88 21 46 59 129
84 184 25 55 56 125 70 155 14 30 45 100 70 155 25 55 59 129 75 165 17 36 51
112 77 170 65 145 91 204 129 285 18 39 70 157 116 263 46 105 87 192 91 192
4 0 40 -22 80 -50z m2102 -1844 c150 -11 320 -96 426 -212 73 -80 136 -197
161 -301 7 -31 6 -33 -19 -34 -152 -5 -4761 -2 -4761 2 0 4 9 38 21 75 33 109
84 191 173 279 122 121 248 178 421 192 44 3 81 6 82 7 6 4 3442 -3 3496 -8z"/>
</g>
</svg>
